<svg width="11" height="20" viewBox="0 0 11 20" fill="none" xmlns="http://www.w3.org/2000/svg">
<path d="M2.88 10.824H0.504C0.12 10.824 0 10.68 0 10.32V7.416C0 7.032 0.144 6.912 0.504 6.912H2.88V4.8C2.88 3.84 3.048 2.928 3.528 2.088C4.032 1.224 4.752 0.648 5.664 0.312C6.264 0.0959998 6.864 0 7.512 0H9.864C10.2 0 10.344 0.144 10.344 0.48V3.216C10.344 3.552 10.2 3.696 9.864 3.696C9.216 3.696 8.568 3.696 7.92 3.72C7.272 3.72 6.936 4.032 6.936 4.704C6.912 5.424 6.936 6.12 6.936 6.864H9.72C10.104 6.864 10.248 7.008 10.248 7.392V10.296C10.248 10.68 10.128 10.8 9.72 10.8H6.936V18.624C6.936 19.032 6.816 19.176 6.384 19.176H3.384C3.024 19.176 2.88 19.032 2.88 18.672V10.824Z" fill="#F2F2F2"/>
</svg>
