<svg width="20" height="20" viewBox="0 0 20 20" fill="none" xmlns="http://www.w3.org/2000/svg">
<path d="M10.4097 11.8875V9.155H19.8597C19.9521 9.63083 20 10.1942 20 10.8042C20 12.8542 19.4252 15.3892 17.571 17.195C15.768 19.0242 13.4648 20 10.4131 20C4.75624 20 0 15.5108 0 10C0 4.48917 4.75624 0 10.4131 0C13.5426 0 15.7715 1.19667 17.4461 2.75583L15.467 4.68333C14.2662 3.58583 12.6386 2.7325 10.4097 2.7325C6.27951 2.7325 3.04909 5.97583 3.04909 10C3.04909 14.0242 6.27951 17.2675 10.4097 17.2675C13.0884 17.2675 14.6143 16.2192 15.5919 15.2667C16.3847 14.4942 16.9064 13.3908 17.1117 11.8842L10.4097 11.8875Z" fill="#F2F2F2"/>
</svg>
